<?xml version="1.0" encoding="UTF-8"?>
<svg width="24px" height="24px" viewBox="0 0 24 24" version="1.1" xmlns="http://www.w3.org/2000/svg" xmlns:xlink="http://www.w3.org/1999/xlink">
    <!-- Generator: Sketch 64 (93537) - https://sketch.com -->
    <title>断面县</title>
    <desc>Created with Sketch.</desc>
    <defs>
        <linearGradient x1="50%" y1="-2.48949813e-15%" x2="50%" y2="97.7285043%" id="linearGradient-1">
            <stop stop-color="#FF536A" offset="0%"></stop>
            <stop stop-color="#FF9576" offset="100%"></stop>
        </linearGradient>
    </defs>
    <g id="页面-1" stroke="none" stroke-width="1" fill="none" fill-rule="evenodd">
        <g id="【7月20】湖州市河道断面管理平台1" transform="translate(-1080.000000, -638.000000)">
            <g id="断面icon" transform="translate(506.000000, 70.000000)">
                <g id="断面县" transform="translate(574.000000, 568.000000)">
                    <circle id="椭圆形" fill="url(#linearGradient-1)" cx="12" cy="12" r="12"></circle>
                    <g id="水质断面" transform="translate(5.000000, 5.000000)" fill="#FFFFFF">
                        <path d="M1.4976671,0 L2.1628222,0 C2.64518982,-8.86094957e-17 3.05880897,0.344342908 3.1462534,0.818718286 L5.12005021,11.5263255 C5.32028846,12.6125936 4.60201934,13.6555131 3.51575122,13.8557513 C3.39615556,13.8777971 3.2747984,13.8888889 3.1531878,13.8888889 L1.47848201,13.8888889 C0.940612589,13.8888889 0.499093705,13.463434 0.479168404,12.9259338 L0.0554808794,1.49663911 C0.0259544698,0.700141651 0.64770735,0.0305170014 1.44420481,0.000990591768 C1.46201792,0.000330253927 1.47984175,3.27446422e-18 1.4976671,0 Z" id="矩形"></path>
                        <rect id="矩形" x="5" y="2.22222222" width="10" height="1.66666667" rx="0.833333333"></rect>
                        <path d="M8.88811111,5.55555556 L8.88811111,7.22155556 L6.94444444,7.22222222 C6.48420715,7.22222222 6.11111111,6.84912618 6.11111111,6.38888889 C6.11111111,5.9286516 6.48420715,5.55555556 6.94444444,5.55555556 L8.88811111,5.55555556 Z M13.0555556,5.55555556 C13.5157928,5.55555556 13.8888889,5.9286516 13.8888889,6.38888889 C13.8888889,6.84912618 13.5157928,7.22222222 13.0555556,7.22222222 L11.1101111,7.22155556 L11.1101111,5.55555556 L13.0555556,5.55555556 Z" id="形状结合"></path>
                        <rect id="矩形备份-4" x="7.22222222" y="8.33333333" width="5.55555556" height="1.66666667" rx="0.833333333"></rect>
                        <rect id="矩形备份-5" x="7.77777778" y="11.6666667" width="4.44444444" height="1.66666667" rx="0.833333333"></rect>
                    </g>
                </g>
            </g>
        </g>
    </g>
</svg>